<?xml version="1.0" standalone="no"?>
<!DOCTYPE svg PUBLIC "-//W3C//DTD SVG 20010904//EN"
 "http://www.w3.org/TR/2001/REC-SVG-20010904/DTD/svg10.dtd">
<svg version="1.0" xmlns="http://www.w3.org/2000/svg"
 width="597.000000pt" height="572.000000pt" viewBox="0 0 597.000000 572.000000"
 preserveAspectRatio="xMidYMid meet">

<g transform="translate(0.000000,572.000000) scale(0.100000,-0.100000)"
fill="#000000" stroke="none">
<path d="M0 2860 l0 -2860 2985 0 2985 0 0 2860 0 2860 -2985 0 -2985 0 0
-2860z m3171 1950 c766 -75 1402 -555 1664 -1255 291 -777 63 -1652 -568
-2182 -317 -265 -688 -416 -1121 -454 -233 -21 -501 13 -751 95 -554 183
-1006 617 -1210 1161 -291 777 -63 1652 568 2182 394 330 928 501 1418 453z"/>
<path d="M2850 3973 c-268 -40 -366 -65 -656 -162 -309 -104 -380 -122 -516
-128 -92 -5 -118 -9 -123 -21 -12 -32 -18 -229 -7 -236 26 -16 350 72 770 208
229 74 343 103 511 127 109 15 345 6 511 -20 233 -37 281 -49 755 -192 104
-32 119 -34 265 -34 127 0 164 3 203 18 57 22 60 40 18 112 -44 77 -59 87
-107 73 -21 -6 -84 -11 -139 -11 -118 0 -199 18 -445 98 -209 68 -436 127
-589 155 -86 15 -153 20 -270 19 -86 -1 -167 -3 -181 -6z"/>
<path d="M2949 3659 c-133 -11 -241 -34 -564 -119 -165 -43 -410 -106 -545
-140 -135 -33 -262 -65 -283 -71 l-38 -10 3 -102 3 -102 75 -13 c163 -28 275
-58 515 -138 256 -85 417 -130 585 -161 79 -15 144 -18 383 -16 220 1 287 -2
287 -11 0 -22 -104 -139 -201 -226 -552 -498 -1225 -702 -1499 -454 -75 68
-115 192 -91 282 16 58 71 117 127 136 l46 15 -7 -37 c-5 -30 -1 -45 17 -72
43 -64 108 -77 169 -36 49 33 73 86 67 147 -7 66 -43 110 -123 150 -60 30 -70
31 -148 27 -104 -5 -178 -39 -242 -111 -144 -159 -118 -453 54 -625 107 -108
262 -157 466 -149 209 8 396 61 640 181 308 152 623 395 915 707 61 65 119
121 130 124 11 3 29 1 41 -5 20 -11 21 -17 17 -109 -4 -72 -19 -149 -61 -311
-31 -118 -63 -253 -71 -299 -18 -94 -22 -326 -6 -336 17 -10 74 31 107 77 48
68 96 171 157 337 31 85 67 173 81 197 31 52 97 111 136 119 46 10 43 23 -10
50 -70 35 -119 81 -130 121 -13 48 3 146 34 210 80 163 218 240 520 290 55 9
102 17 103 19 6 6 -68 179 -83 194 -12 12 -26 13 -92 3 -178 -27 -294 -12
-523 68 -463 163 -732 219 -961 199z m-139 -289 c0 -148 80 -220 245 -220 159
0 245 82 245 233 0 44 2 47 25 47 129 0 692 -184 670 -219 -10 -17 -124 -77
-209 -111 -228 -90 -414 -120 -741 -120 -245 0 -383 14 -555 55 -117 28 -580
175 -580 184 0 7 849 217 888 220 8 1 12 -19 12 -69z"/>
</g>
</svg>
